# xmcd
#
# Track frame offsets:
#	150
#	5257
#	28560
#	50100
#	73767
#	106647
#	132002
#	150327
#	177512
#	207970
#
# Disc length: 2856 seconds
#
# Revision: 0
# Processed by: cddbd v1.5.1PL0 Copyright (c) Steve Scherf et al.
# Submitted via: dBpowerAMP V4.0
#
DISCID=7b0b260a
DTITLE=Ibrahim Tatlises - Sark muhabbeti
DYEAR=1900
DGENRE=
TTITLE0=Kara üzüm habbesi (enstr.)
TTITLE1=Acilis konusmasi ve Ibrahim Tatlises - Gördükce seni
TTITLE2=Konusma ve Azer Bülbül - Vuracaklar biliyorum
TTITLE3=Konusma ve Seyfi Doganay - Sucum ne benim
TTITLE4=Konusma ve Siir ve Kahtali Mici - Eser rüzgar del deli
TTITLE5=Konusma Sohbet ve Mustafa Keser - Ahu gözlüm
TTITLE6=Siir ve Azer Bülbül - Malatyanin kavaklari
TTITLE7=Sohbet ve Ibrahim Tatlises - Karadir kaslarin
TTITLE8=Siir ve Ibrahim Tatlises - Neden saclarin beyazlamis
TTITLE9=Kara üzüm (Remix)
EXTD=
EXTT0=
EXTT1=
EXTT2=
EXTT3=
EXTT4=
EXTT5=
EXTT6=
EXTT7=
EXTT8=
EXTT9=
PLAYORDER=
